<svg width="208" height="208" viewBox="0 0 208 208" fill="none" xmlns="http://www.w3.org/2000/svg">
<g clip-path="url(#clip0_43_2479)">
<path d="M168.346 39.7066C159.911 31.1882 149.876 24.4204 138.818 19.7919C127.759 15.1635 115.895 12.7656 103.907 12.7361C91.9193 12.7066 80.0436 15.046 68.9625 19.62C57.8814 24.194 47.8133 30.9123 39.3365 39.3891C30.8597 47.8659 24.1414 57.934 19.5674 69.0151C14.9934 80.0962 12.654 91.9719 12.6835 103.96C12.713 115.948 15.1109 127.812 19.7393 138.87C24.3678 149.929 31.1356 159.964 39.654 168.399C48.089 176.917 58.1239 183.685 69.1824 188.313C80.2408 192.942 92.1048 195.34 104.093 195.369C116.081 195.399 127.956 193.059 139.037 188.485C150.119 183.911 160.187 177.193 168.663 168.716C177.14 160.239 183.859 150.171 188.433 139.09C193.007 128.009 195.346 116.133 195.316 104.145C195.287 92.1574 192.889 80.2934 188.261 69.235C183.632 58.1765 176.864 48.1416 168.346 39.7066ZM26 104.053C25.9971 97.1492 26.9124 90.2761 28.7218 83.6142C31.7037 90.0329 36.0343 95.5782 38.9797 102.164C42.7862 110.63 53.0075 108.282 57.5209 115.7C61.5265 122.285 57.2487 130.613 60.2468 137.503C62.4243 142.504 67.5593 143.597 71.1018 147.253C74.7215 150.942 74.6443 155.996 75.1968 160.806C75.8203 166.457 76.8315 172.059 78.2234 177.572C78.2234 177.612 78.2234 177.657 78.2559 177.698C47.8562 167.021 26 138.044 26 104.053ZM104 182.053C99.6439 182.051 95.2956 181.687 91 180.964C91.0447 179.863 91.065 178.835 91.1747 178.12C92.1618 171.661 95.3956 165.344 99.7587 160.509C104.069 155.74 109.976 152.514 113.616 147.103C117.183 141.822 118.251 134.712 116.781 128.541C114.615 119.425 102.229 116.382 95.55 111.438C91.7109 108.594 88.2943 104.199 83.2528 103.841C80.929 103.679 78.9831 104.179 76.6797 103.585C74.5672 103.037 72.9097 101.899 70.659 102.196C66.4543 102.749 63.8015 107.242 59.284 106.632C54.9981 106.059 50.5822 101.042 49.6072 96.9595C48.3559 91.7107 52.5078 90.0085 56.9562 89.5413C58.8128 89.3463 60.8968 89.1351 62.6803 89.8176C65.0284 90.687 66.1375 92.9863 68.2459 94.1482C72.1987 96.3176 72.999 92.8523 72.3937 89.3423C71.4878 84.0854 70.4315 81.9445 75.1197 78.3248C78.3697 75.8304 81.1484 74.0266 80.6284 69.5457C80.3197 66.9132 78.8775 65.7229 80.2222 63.1026C81.2418 61.1079 84.0409 59.3082 85.865 58.1179C90.5734 55.0466 106.035 55.2741 99.7181 46.6779C97.8615 44.1551 94.4369 39.6457 91.1869 39.0282C87.1244 38.2604 85.3206 42.7941 82.489 44.7929C79.564 46.8607 73.8684 49.2088 70.9393 46.0117C66.9987 41.7095 73.5515 40.2998 75.0018 37.2935C75.6722 35.892 75.0018 33.946 73.8725 32.1138C75.3377 31.4963 76.8273 30.9235 78.3412 30.3954C79.29 31.0962 80.4156 31.5183 81.5912 31.6141C84.309 31.7929 86.8725 30.3223 89.245 32.1748C91.8775 34.206 93.7747 36.7735 97.2684 37.4073C100.648 38.0207 104.227 36.0504 105.064 32.5891C105.572 30.4848 105.064 28.2626 104.577 26.0891C119.771 26.1766 134.604 30.7268 147.233 39.1745C146.421 38.8657 145.45 38.9023 144.251 39.4588C141.785 40.6045 138.292 43.5213 138.003 46.4138C137.674 49.6963 142.517 50.1595 144.816 50.1595C148.269 50.1595 151.767 48.6157 150.654 44.6263C150.17 42.8957 149.512 41.096 148.452 40.0073C151.001 41.7759 153.442 43.6941 155.764 45.7516C155.728 45.7882 155.691 45.8207 155.655 45.8613C153.315 48.2988 150.597 50.2285 148.996 53.1941C147.867 55.2823 146.595 56.2735 144.308 56.8138C143.049 57.1104 141.611 57.2201 140.554 58.0651C137.613 60.3807 139.287 65.9463 142.074 67.616C145.596 69.7245 150.82 68.7332 153.477 65.7229C155.553 63.3666 156.776 59.2757 160.509 59.2798C162.153 59.2764 163.732 59.9199 164.905 61.0713C166.449 62.672 166.144 64.167 166.473 66.1657C167.054 69.7163 170.186 67.7907 172.092 65.9991C173.48 68.4709 174.733 71.0164 175.845 73.6245C173.749 76.6429 172.083 79.9335 167.042 76.4154C164.023 74.307 162.167 71.2479 158.377 70.2973C155.066 69.4848 151.673 70.3298 148.403 70.8945C144.686 71.5404 140.278 71.8248 137.459 74.6401C134.733 77.3538 133.291 80.9857 130.39 83.7116C124.78 88.9929 122.411 94.7576 126.043 102.224C129.537 109.403 136.845 113.299 144.731 112.787C152.478 112.271 160.526 107.778 160.302 119.035C160.221 123.02 161.054 125.779 162.277 129.48C163.41 132.892 163.333 136.199 163.593 139.721C163.84 143.846 164.485 147.937 165.518 151.937C158.237 161.313 148.909 168.9 138.247 174.119C127.585 179.338 115.871 182.052 104 182.053Z" fill="#1BA0E2"/>
<path d="M12.5938 104C93.8354 136.317 140.101 139.277 224.647 106.872" stroke="#1E1E1E" stroke-width="2.4375" stroke-dasharray="20.31 20.31"/>
<path d="M0.264306 98.0965C0.659137 97.1914 1.70569 96.7806 2.59977 97.1798L8.56726 99.783L17.7745 93.4735L19.9486 94.4127L13.4413 101.9L19.4241 104.51L21.9894 103.045L23.6199 103.766L20.8778 107.08L20.3073 111.359L18.6592 110.659L17.9857 107.744L12.0489 105.155L10.9544 115.031L8.7871 114.076L7.14855 103.035L1.18105 100.432C0.299946 100.066 -0.132481 98.9642 0.264306 98.0965Z" fill="#1E1E1E"/>
<path d="M165.238 184.278C97.5086 143.686 70.1747 112.061 47.7349 33.4375" stroke="#1E1E1E" stroke-width="2.22445" stroke-dasharray="18.54 18.54"/>
<path d="M176.244 189.889C176.687 189.106 176.417 188.128 175.64 187.705L170.498 184.85L170.077 174.756L168.21 173.71L166.305 182.512L161.15 179.65L160.819 176.999L159.408 176.224L158.489 180.021L155.686 182.788L157.093 183.587L159.579 182.466L164.695 185.306L158.105 191.534L159.979 192.566L168.904 187.661L174.046 190.516C174.792 190.948 175.828 190.652 176.244 189.889Z" fill="#1E1E1E"/>
</g>
<defs>
<clipPath id="clip0_43_2479">
<rect width="208" height="208" fill="white"/>
</clipPath>
</defs>
</svg>
